<?xml version="1.0" encoding="UTF-8" standalone="no"?>
<svg
   xmlns:dc="http://purl.org/dc/elements/1.1/"
   xmlns:cc="http://creativecommons.org/ns#"
   xmlns:rdf="http://www.w3.org/1999/02/22-rdf-syntax-ns#"
   xmlns:svg="http://www.w3.org/2000/svg"
   xmlns="http://www.w3.org/2000/svg"
   xmlns:xlink="http://www.w3.org/1999/xlink"
   xmlns:sodipodi="http://sodipodi.sourceforge.net/DTD/sodipodi-0.dtd"
   xmlns:inkscape="http://www.inkscape.org/namespaces/inkscape"
   width="210mm"
   height="297mm"
   viewBox="0 0 210 297"
   version="1.1"
   id="svg8"
   inkscape:version="1.0.2 (394de47547, 2021-03-26)"
   sodipodi:docname="rust_tock_embedded.svg">
  <defs
     id="defs2">
    <rect
       id="XMLID_77_"
       x="81.2"
       y="22.8"
       width="90"
       height="89.4" />
    <rect
       id="XMLID_79_"
       x="81.2"
       y="22.8"
       width="90"
       height="89.4" />
    <clipPath
       id="XMLID_19_">
      <use
         xlink:href="#XMLID_77_"
         style="overflow:visible"
         id="use1517"
         x="0"
         y="0"
         width="100%"
         height="100%" />
    </clipPath>
    <clipPath
       id="XMLID_20_">
      <use
         xlink:href="#XMLID_79_"
         style="overflow:visible"
         id="use1523"
         x="0"
         y="0"
         width="100%"
         height="100%" />
    </clipPath>
    <clipPath
       id="clipPath1594">
      <use
         xlink:href="#XMLID_79_"
         style="overflow:visible"
         id="use1592"
         x="0"
         y="0"
         width="100%"
         height="100%" />
    </clipPath>
    <rect
       id="rect1553"
       x="81.199997"
       y="22.799999"
       width="90"
       height="89.400002" />
    <rect
       id="rect1558"
       x="81.199997"
       y="22.799999"
       width="90"
       height="89.400002" />
  </defs>
  <sodipodi:namedview
     id="base"
     pagecolor="#ffffff"
     bordercolor="#666666"
     borderopacity="1.0"
     inkscape:pageopacity="0.0"
     inkscape:pageshadow="2"
     inkscape:zoom="0.56053432"
     inkscape:cx="405.67406"
     inkscape:cy="608.67199"
     inkscape:document-units="mm"
     inkscape:current-layer="layer1"
     inkscape:document-rotation="0"
     showgrid="false"
     inkscape:window-width="1920"
     inkscape:window-height="1068"
     inkscape:window-x="0"
     inkscape:window-y="27"
     inkscape:window-maximized="1" />
  <metadata
     id="metadata5">
    <rdf:RDF>
      <cc:Work
         rdf:about="">
        <dc:format>image/svg+xml</dc:format>
        <dc:type
           rdf:resource="http://purl.org/dc/dcmitype/StillImage" />
        <dc:title></dc:title>
      </cc:Work>
    </rdf:RDF>
  </metadata>
  <g
     inkscape:label="Layer 1"
     inkscape:groupmode="layer"
     id="layer1">
    <path
       style="fill:#4ba2da;fill-opacity:1;stroke:none;stroke-width:0.270265;stroke-miterlimit:4;stroke-dasharray:none"
       d="m 37.359464,46.741744 h 13.504745 c 0,-3.189977 0.746269,-7.418071 -0.975855,-10.262576 -2.693387,-4.449197 -9.581883,-4.189498 -11.842042,0.53916 -1.34102,2.805695 -0.686848,6.6902 -0.686848,9.723416 m 30.520724,0 h 13.234648 c 0,-2.821866 0.723315,-6.828725 -0.414056,-9.45332 -2.16346,-4.991595 -9.135961,-5.286889 -11.974387,-0.810282 -1.697272,2.677178 -0.846205,7.209155 -0.846205,10.263602 m 30.250626,0 h 13.504746 c 0,-3.189977 0.74627,-7.418071 -0.97586,-10.262576 -2.69338,-4.44922 -9.58188,-4.189498 -11.842037,0.53916 -1.340745,2.805642 -0.686849,6.6902 -0.686849,9.723416 m 30.520726,0 h 13.23465 c 0,-2.821843 0.72331,-6.828725 -0.41406,-9.45332 -2.16319,-4.991626 -9.13596,-5.286835 -11.97439,-0.810282 -1.69727,2.677178 -0.8462,7.209155 -0.8462,10.263602 m 30.25062,0 h 13.50475 c 0,-3.189977 0.74627,-7.418071 -0.97585,-10.262576 -2.69339,-4.44922 -9.58189,-4.189498 -11.84204,0.53916 -1.34075,2.805642 -0.68686,6.6902 -0.68686,9.723416 M 30.607088,53.619713 c -3.427773,0.617973 -6.008796,3.199004 -6.626776,6.626776 -0.557121,3.089343 -0.125593,6.587882 -0.125593,9.723416 v 18.636549 89.671506 23.22816 c 0,3.43507 -0.64696,7.54214 1.410975,10.53262 2.641798,3.8394 6.891474,3.51232 11.013391,3.51232 h 26.199202 79.948093 24.84872 c 3.92773,0 8.59875,0.68631 12.42437,-0.24308 3.27598,-0.79571 5.65038,-3.44506 6.13116,-6.77939 1.30672,-9.06438 0.081,-19.19429 0.081,-28.35996 V 89.686833 66.998865 c 0,-3.55364 0.58476,-7.55834 -1.8045,-10.52317 -2.81412,-3.492054 -7.15536,-2.981575 -11.16005,-2.981575 H 146.4778 68.420373 43.301551 c -4.075191,0 -8.682199,-0.597967 -12.694463,0.125593 m 74.276102,11.992754 c 2.50648,0 2.46975,4.445492 4.61592,4.964615 2.15158,0.520739 3.29246,-4.2251 5.64255,-3.992541 2.5262,0.24983 1.70079,4.803635 3.59145,5.792989 2.17994,1.141154 4.27696,-3.937984 6.6384,-2.665296 2.12915,1.147907 0.43269,4.940307 2.28446,6.244056 2.00302,1.410432 4.67696,-2.7574 6.85177,-1.345345 1.97033,1.279172 -0.61663,5.338155 1.25216,6.79937 1.75048,1.368843 4.64995,-1.643257 6.58058,-0.358955 2.17562,1.447166 -1.27808,5.208513 0.003,6.929014 1.39126,1.868519 5.07534,-0.470507 6.67215,1.096586 1.97493,1.938467 -2.55051,5.042671 -1.22893,7.010315 1.27619,1.899573 5.09129,0.198787 6.24189,2.2823 1.21084,2.192895 -2.75362,4.097335 -2.72634,6.157625 0.0332,2.49081 5.49157,1.50847 5.86376,4.07114 0.35761,2.46218 -4.25831,3.29974 -3.95743,5.64201 0.28684,2.23124 4.73585,2.10214 4.97434,4.61376 0.25037,2.63828 -5.05131,2.54402 -5.05131,4.87926 0,2.16238 4.11597,2.97672 4.04791,5.3757 -0.077,2.72229 -5.48158,1.60922 -5.86538,4.07789 -0.34329,2.20722 3.79672,3.75838 2.79142,6.13657 -0.95802,2.26664 -6.0223,0.30548 -6.51495,2.77765 -0.3984,1.99979 3.11959,4.70857 1.42474,6.59761 -1.566,1.74536 -5.19986,-0.93831 -6.63434,1.03501 -1.35722,1.86716 2.07434,5.32788 -0.0408,7.0022 -1.82098,1.4415 -4.72423,-1.62434 -6.58059,-0.35841 -1.98817,1.35561 0.85485,5.81703 -1.47634,6.93414 -2.10269,1.00746 -4.76096,-2.82546 -6.62759,-1.55088 -1.8407,1.25702 -0.11344,5.38299 -2.30715,6.31887 -2.44247,1.0423 -4.19835,-3.44857 -6.39152,-2.65638 -2.20668,0.79705 -1.20139,5.54397 -3.82185,5.74113 -2.43355,0.18286 -3.12148,-3.90449 -5.3865,-3.90449 -2.37305,0 -2.31148,4.95246 -4.86576,4.95246 -2.55428,0 -2.4927,-4.95246 -4.86576,-4.95246 -2.265014,0 -2.95295,4.08735 -5.386499,3.90449 -2.62046,-0.19716 -1.615174,-4.94408 -3.821846,-5.74113 -2.215591,-0.80057 -3.961212,3.69354 -6.391522,2.65638 -2.19371,-0.93588 -0.466189,-5.06185 -2.307153,-6.31887 -1.866628,-1.27458 -4.524902,2.55834 -6.627587,1.55088 -2.331193,-1.11711 0.511827,-5.57853 -1.476344,-6.93414 -1.856361,-1.26593 -4.759612,1.79991 -6.580586,0.35841 -2.115118,-1.67432 1.316712,-5.13531 -0.04081,-7.0022 -1.43448,-1.97332 -5.068335,0.71035 -6.634341,-1.03501 -1.694845,-1.88904 1.823141,-4.59782 1.424749,-6.59761 -0.492657,-2.47217 -5.556933,-0.51101 -6.514958,-2.77765 -1.005294,-2.37819 3.134715,-3.92935 2.791425,-6.13657 -0.3838,-2.46867 -5.788403,-1.3556 -5.865379,-4.07789 -0.06806,-2.39898 4.047911,-3.21332 4.047911,-5.3757 0,-2.33524 -5.301688,-2.24098 -5.051314,-4.87926 0.238491,-2.51162 4.687498,-2.38252 4.974339,-4.61376 0.300882,-2.34227 -4.315038,-3.17983 -3.957431,-5.64201 0.372193,-2.56267 5.830536,-1.58033 5.863764,-4.07114 0.02726,-2.06029 -3.93718,-3.96473 -2.726339,-6.157625 1.150602,-2.083513 4.965695,-0.382727 6.241889,-2.2823 1.321574,-1.967644 -3.203865,-5.071848 -1.228932,-7.010315 1.596808,-1.567093 5.280895,0.771933 6.672155,-1.096586 1.281332,-1.720501 -2.172372,-5.481848 0.0031,-6.929014 1.930634,-1.284302 4.830103,1.727798 6.580585,0.358955 1.868787,-1.461215 -0.718177,-5.520198 1.252162,-6.79937 2.174807,-1.412055 4.848746,2.755777 6.85177,1.345345 1.851767,-1.303749 0.155306,-5.096149 2.284459,-6.244056 2.361442,-1.272688 4.458462,3.80645 6.638398,2.665296 1.890661,-0.989354 1.06525,-5.543159 3.591447,-5.792989 2.350096,-0.232559 3.490974,4.51328 5.642548,3.992541 2.14618,-0.519123 2.10945,-4.964615 4.61593,-4.964615 M 17.102343,80.50361 V 66.998865 c -3.189977,0 -7.4180714,-0.746276 -10.2625534,0.975848 -4.449213,2.693387 -4.189544,9.581891 0.539137,11.842041 2.8056654,1.34102 6.6902004,0.686856 9.7234164,0.686856 M 192.66403,66.998865 V 80.50361 c 3.03316,0 6.91767,0.654164 9.72342,-0.686856 4.72881,-2.26015 4.98838,-9.148654 0.5391,-11.842041 -2.84437,-1.722124 -7.07244,-0.975848 -10.26252,-0.975848 m -88.59086,7.987511 c -3.89395,0.923188 -2.56212,6.936309 1.35021,6.048508 3.8891,-0.882672 2.51269,-6.964668 -1.35021,-6.048508 M 75.983032,92.387784 h 29.710438 c 5.64256,0 11.64811,-0.693602 17.01598,1.368031 5.44052,2.089455 10.53316,8.174155 8.62818,14.297465 -1.12441,3.61495 -4.35258,6.55251 -7.5478,8.37294 1.492,2.02707 3.60171,3.31028 4.72882,5.672 0.84945,1.78019 0.88348,4.96083 2.369,6.2662 2.12943,1.87148 6.31968,1.31617 7.73336,-1.13548 0.91886,-1.5941 0.83405,-3.88747 0.83432,-5.67091 1.07201,0 3.27868,0.41946 4.15865,-0.27766 1.06553,-0.84405 0.65417,-5.84945 -0.26928,-6.74643 -2.13159,-2.07109 -7.72876,-1.80721 -8.28354,-5.40055 -0.5356,-3.47018 3.91259,-6.59463 3.61387,-9.993238 -0.1002,-1.139798 -1.2103,-2.338206 -1.84529,-3.241136 -4.338,-6.168428 -10.74815,-11.358573 -17.90162,-13.867482 -1.86447,-0.654171 -4.459,-1.968724 -6.48228,-1.698359 -3.23924,0.432692 -4.4174,5.575575 -7.83274,5.621214 -3.14904,0.04188 -4.2694,-4.653734 -7.022479,-5.547209 -1.682687,-0.546127 -4.364459,0.717106 -5.942087,1.269993 -5.729519,2.007885 -12.115644,5.671179 -15.665502,10.710611 M 17.102343,110.75423 V 97.519588 c -2.821866,0 -6.828725,-0.723315 -9.4533204,0.414049 -4.991649,2.163193 -5.286835,9.135953 -0.810282,11.974393 2.677209,1.69727 7.2091554,0.8462 10.2636024,0.8462 M 192.66403,97.519588 v 13.234642 c 3.0545,0 7.58642,0.85107 10.2636,-0.8462 4.47655,-2.83844 4.18134,-9.8112 -0.81028,-11.974393 -2.62451,-1.137364 -6.63137,-0.414049 -9.45332,-0.414049 M 65.723481,103.92164 c -3.800241,1.31374 -1.585729,7.22396 2.155627,5.78084 3.748913,-1.44582 1.622999,-7.08729 -2.155627,-5.78084 m 76.432799,-0.0351 c -4.05277,0.78166 -2.91486,6.86878 1.08011,6.11171 3.81941,-0.72386 2.75037,-6.85042 -1.08011,-6.11171 m -69.144288,0.38542 c 0.354094,1.49039 1.527924,3.02777 1.347773,4.59135 -0.463217,4.01955 -6.744544,2.85382 -8.211157,5.7776 -1.458512,2.9073 -0.274146,8.20305 0.27685,11.23865 0.172051,0.94695 0.275494,2.87624 1.266471,3.34836 2.544564,1.21165 7.895689,0.16287 10.721957,0.16287 v -25.11883 h -5.401894 m 22.958065,0.2701 v 7.29256 c 4.547313,0 9.243183,0.34113 13.774843,-0.0251 1.74103,-0.14072 3.85641,-1.03122 4.20429,-2.94619 0.41244,-2.27258 -1.77911,-3.63035 -3.6641,-4.11571 -4.30424,-1.1082 -9.87332,-0.20554 -14.315033,-0.20554 m 0,18.09636 v 7.02246 h 6.752373 c 0.83757,0 2.15292,-0.22201 2.80817,0.43296 1.38802,1.38829 0.43702,7.11296 0.43297,9.02037 -0.002,0.89402 0.13774,2.10647 -0.85026,2.53809 -2.36576,1.03284 -6.834753,0.16286 -9.41335,0.16286 H 73.552178 c 0.666598,1.30564 1.963318,3.43993 3.511233,3.76998 2.64261,0.56315 5.811096,-2.29959 8.358087,-0.59852 2.915402,1.94737 1.003947,6.80125 3.18523,9.03197 1.457969,1.49092 4.872511,2.00329 6.823136,2.537 6.281866,1.71834 13.475846,1.55764 19.716926,-0.23391 1.70322,-0.48887 3.8548,-0.89211 5.32654,-1.92388 2.70608,-1.89634 0.51805,-7.39196 3.59848,-9.33907 2.5316,-1.60031 5.69009,1.18032 8.36106,0.69793 1.66513,-0.30089 3.07233,-2.5524 3.78133,-3.9415 h -12.42437 c -1.84232,0 -4.05521,0.34032 -5.67199,-0.73007 -6.08956,-4.03144 -3.09583,-12.15049 -7.61938,-16.77614 -3.06531,-3.13445 -10.48832,-1.67053 -14.528403,-1.67053 m -78.867714,18.63655 v -13.50475 c -3.033216,0 -6.917751,-0.65417 -9.7234164,0.68685 -4.728658,2.26015 -4.98838,9.14865 -0.539137,11.84205 2.844482,1.72212 7.0725764,0.97585 10.2625534,0.97585 M 192.66403,127.77019 v 13.50475 c 3.19008,0 7.41815,0.74627 10.26252,-0.97585 4.44928,-2.6934 4.18945,-9.5819 -0.5391,-11.84205 -2.80575,-1.34075 -6.69026,-0.68685 -9.72342,-0.68685 M 81.114836,148.49917 c -4.135154,0.0551 -3.841017,6.43447 0.270097,6.20435 3.918805,-0.21959 3.627646,-6.25621 -0.270097,-6.20435 m 46.457404,0.2231 c -3.86425,0.92264 -2.53944,6.93063 1.34939,6.0485 3.92232,-0.88969 2.53484,-6.97628 -1.34939,-6.0485 m -110.469897,22.8033 v -13.23465 c -2.821866,0 -6.828725,-0.72331 -9.4533204,0.41405 -4.991595,2.16346 -5.286889,9.13596 -0.810282,11.97439 2.677209,1.69728 7.2091554,0.84621 10.2636024,0.84621 M 192.66403,158.29092 v 13.23465 c 3.0545,0 7.58642,0.85107 10.2636,-0.84621 4.47655,-2.83843 4.18134,-9.81093 -0.81028,-11.97439 -2.62451,-1.13736 -6.63137,-0.41405 -9.45332,-0.41405 M 74.902653,179.62841 v 8.37295 c 0.908872,-0.78382 1.800723,-1.49849 2.971047,-1.84367 9.787698,-2.88759 10.114512,18.14497 -0.270096,15.74572 -1.055259,-0.24389 -1.878779,-0.8038 -2.700951,-1.47769 l -0.270096,1.35048 h -2.160758 v -21.87769 l 2.430854,-0.2701 m 44.565667,0.2701 v 21.87769 h -2.16077 l -0.54019,-1.89067 c -1.83988,3.23466 -6.7729,2.60696 -8.65141,-0.27117 -4.1284,-6.32589 0.97262,-17.39114 8.92151,-12.15319 v -7.83276 l 2.43086,0.2701 m 17.55616,0 v 21.87769 h -2.16076 v -1.89067 c -0.81704,0.74519 -1.64542,1.46715 -2.70095,1.85474 -9.95867,3.65412 -10.65173,-18.17063 -0.2701,-15.71493 1.04419,0.24687 1.86015,0.79705 2.70095,1.43583 v -7.83276 l 2.43086,0.2701 m 35.38243,0 v 21.87769 h -2.16076 l -0.2701,-1.89067 c -0.81325,0.78922 -1.60274,1.54305 -2.70095,1.91227 -9.98,3.3562 -10.34301,-18.55335 0,-15.70655 1.08795,0.29953 1.87528,0.89941 2.70095,1.64001 v -8.10285 l 2.43086,0.2701 m -122.893176,1.62057 c -0.482121,3.4772 -6.174369,2.16076 -8.913134,2.16076 v 6.75237 h 7.562659 c -0.03997,3.38213 -5.042403,2.16076 -7.562659,2.16076 v 7.02247 h 9.183231 v 2.16076 H 37.899649 v -20.25712 h 11.614085 m 11.884173,6.21218 c 0.791112,-0.5383 1.527389,-1.23271 2.430855,-1.58032 2.102417,-0.80921 3.76215,0.63823 4.154058,2.6607 0.791654,4.08303 0.167464,8.80914 0.167464,12.96456 h -2.430853 v -10.26361 c 0,-1.01934 0.306011,-3.10096 -1.032574,-3.451 -1.277549,-0.33411 -2.539978,1.28646 -2.708783,2.37062 -0.561799,3.60523 -0.03997,7.69258 -0.03997,11.34399 H 59.50725 v -10.26361 c 0,-1.01934 0.306012,-3.10096 -1.032573,-3.451 -1.27755,-0.33411 -2.539978,1.28646 -2.708783,2.37062 -0.561799,3.60523 -0.03996,7.69258 -0.03996,11.34399 H 53.29508 c 0,-4.385 -1.158442,-10.62473 0.08589,-14.81525 0.506965,-1.70754 1.986012,-0.36895 2.07487,0.77031 1.706192,-1.61381 4.846579,-3.05477 5.942087,0 m 41.054423,7.02247 H 92.188743 c 0.11371,5.34194 4.758264,5.81676 8.643037,3.78133 l 1.08038,1.89066 c -2.42032,1.2681 -5.1102,2.2191 -7.832756,1.24568 -4.914911,-1.75724 -5.849982,-8.86424 -3.211966,-12.85949 2.283923,-3.45883 7.72471,-4.09788 10.288452,-0.53641 1.37776,1.91444 1.29646,4.23698 1.29646,6.47823 m 52.9386,0 h -10.26362 c 0.11776,5.5229 4.7145,5.6069 8.64303,3.78133 l 1.08038,1.89066 c -2.60884,1.36695 -5.49994,2.28852 -8.37294,1.05121 -4.62321,-1.99087 -5.24795,-9.1654 -2.52863,-12.9343 2.23423,-3.09664 7.41627,-3.77188 9.87818,-0.52966 1.55007,2.04138 1.56358,4.30342 1.56358,6.74076 m -77.787326,-6.576 c -4.468989,1.3999 -4.176475,13.39265 1.890661,11.71914 4.821198,-1.3294 4.053584,-13.58117 -1.890661,-11.71914 m 14.585124,4.68533 h 7.832752 c -0.05268,-6.26647 -7.563735,-6.17058 -7.832752,0 m 19.991072,-4.68533 c -4.50518,1.45014 -3.60252,13.44721 2.15671,11.64622 4.55839,-1.42583 4.21699,-13.69786 -2.15671,-11.64622 m 17.55319,0.024 c -4.35959,1.68809 -3.45504,13.66843 2.42978,11.56817 4.2756,-1.52604 3.7789,-13.97201 -2.42978,-11.56817 m 15.39434,4.6613 h 7.83275 c -0.0521,-6.23406 -7.70068,-6.19355 -7.83275,0 m 19.9881,-4.68533 c -4.5349,1.44096 -3.61684,13.45666 2.15967,11.64622 4.55516,-1.42799 4.22834,-13.67626 -2.15967,-11.64622 M 17.102343,202.04626 v -13.50474 c -3.033216,0 -6.917751,-0.65418 -9.7234164,0.68684 -4.728658,2.26016 -4.98835,9.14866 -0.539137,11.84205 2.844482,1.72212 7.0725764,0.97585 10.2625534,0.97585 m 175.561687,-13.5047 v 13.50474 c 3.19008,0 7.41815,0.74627 10.26252,-0.97585 4.44928,-2.69339 4.18945,-9.58189 -0.5391,-11.84205 -2.80575,-1.34102 -6.69026,-0.68684 -9.72342,-0.68684 M 37.359464,222.30341 c 0,3.1901 -0.746276,7.41816 0.975848,10.26253 2.693387,4.44927 9.581891,4.18944 11.842041,-0.53911 1.341028,-2.80574 0.686856,-6.69025 0.686856,-9.72342 H 37.359464 m 30.520724,0 c 0,2.82195 -0.723315,6.82881 0.414057,9.45332 2.16346,4.99163 9.13596,5.28685 11.974386,0.81029 1.697272,-2.67718 0.846205,-7.20911 0.846205,-10.26361 H 67.880188 m 30.250626,0 c 0,3.1901 -0.746268,7.41816 0.975856,10.26253 2.69339,4.44927 9.58188,4.18944 11.84204,-0.53911 1.34102,-2.80574 0.68685,-6.69025 0.68685,-9.72342 H 98.130814 m 30.520726,0 c 0,3.0545 -0.85107,7.58643 0.8462,10.26361 2.83843,4.47656 9.8112,4.18134 11.97439,-0.81029 1.13737,-2.62451 0.41406,-6.63137 0.41406,-9.45332 h -13.23465 m 30.25062,0 c 0,3.03317 -0.65417,6.91768 0.68686,9.72342 2.26015,4.72855 9.14865,4.98838 11.84204,0.53911 1.72212,-2.84437 0.97585,-7.07243 0.97585,-10.26253 z"
       id="path1200" />
    <rect
       style="fill:#4ba2da;fill-opacity:1;stroke:#4ba2da;stroke-width:0.101828;stroke-linejoin:bevel;stroke-miterlimit:4;stroke-dasharray:none;stroke-opacity:1"
       id="rect1576"
       width="142.20628"
       height="22.774212"
       x="34.113503"
       y="179.62981" />
  </g>
  <g
     inkscape:groupmode="layer"
     id="layer2"
     inkscape:label="Layer 2"
     style="display:inline">
    <g
       id="g1574"
       transform="matrix(0.30313112,0,0,0.30313112,41.159234,174.50457)"
       style="fill:#ffffff;fill-opacity:1">
      <g
         id="XMLID_1_"
         style="fill:#ffffff;fill-opacity:1">
        <path
           id="XMLID_11_"
           class="st0"
           d="m 31.8,11.1 h -11 c -1.9,0 -3.5,0.1 -5,0.2 -1.5,0.1 -2.6,0.3 -3.4,0.5 -1,0.2 -1.7,0.3 -2.2,0.4 C 9.7,12.2 9.3,12.3 9,12.3 7.7,12.3 6.7,12 6.1,11.5 5.5,10.9 5.2,10.2 5.2,9.4 5.2,8.9 5.3,8.5 5.5,8 5.7,7.6 6.1,7.2 6.6,6.9 7.3,6.5 8.1,6.3 9,6.1 10,5.9 11.1,5.8 12.6,5.8 h 65.3 c 2,0 3.6,-0.1 5.1,-0.2 1.4,-0.1 2.6,-0.3 3.5,-0.4 0.9,-0.2 1.6,-0.3 2.1,-0.3 0.5,0 0.9,0 1.2,0 1.3,0 2.2,0.3 2.8,0.8 0.6,0.5 0.9,1.2 0.9,2.1 0,0.5 -0.1,0.9 -0.3,1.4 -0.2,0.4 -0.6,0.8 -1.1,1.1 -0.5,0.3 -1.3,0.5 -2.2,0.7 -0.9,0.2 -2.1,0.3 -3.5,0.3 h -17 v 98.4 H 31.8 Z"
           style="fill:#ffffff;fill-opacity:1" />
      </g>
      <g
         id="XMLID_9_"
         style="fill:#ffffff;fill-opacity:1">
        <path
           id="XMLID_3_"
           class="st0"
           d="m 202.2,66.8 c -2.7,0 -5.2,-0.4 -7.3,-1.1 -2.1,-0.8 -3.9,-1.8 -5.3,-3.2 -1.4,-1.4 -2.5,-3.1 -3.3,-5 -0.8,-2 -1.1,-4.1 -1.1,-6.4 0,-2 0.4,-3.8 1.3,-5.6 0.9,-1.8 2.1,-3.4 3.6,-4.7 1.5,-1.4 3.4,-2.5 5.5,-3.3 2.1,-0.8 4.5,-1.2 7,-1.2 2.7,0 5.1,0.5 7.2,1.4 2.1,0.9 3.9,2.1 5.3,3.7 1.4,1.5 2.5,3.2 3.3,5.1 0.8,1.9 1.1,3.8 1.1,5.7 0,2.1 -0.4,4 -1.3,5.7 -0.9,1.8 -2.1,3.3 -3.7,4.7 -1.6,1.3 -3.4,2.4 -5.5,3.1 -2.1,0.7 -4.4,1.1 -6.8,1.1 z m -17,28 c 0,-2 0.4,-3.8 1.3,-5.6 0.9,-1.8 2.1,-3.4 3.6,-4.7 1.5,-1.4 3.4,-2.5 5.5,-3.3 2.1,-0.8 4.5,-1.2 7,-1.2 2.7,0 5.1,0.5 7.2,1.4 2.1,0.9 3.9,2.1 5.3,3.7 1.4,1.5 2.5,3.2 3.3,5.1 0.8,1.9 1.1,3.8 1.1,5.7 0,2.1 -0.4,4 -1.3,5.7 -0.9,1.8 -2.1,3.3 -3.7,4.7 -1.6,1.3 -3.4,2.4 -5.5,3.1 -2.1,0.8 -4.4,1.2 -6.8,1.2 -2.7,0 -5.2,-0.4 -7.3,-1.1 -2.1,-0.8 -3.9,-1.8 -5.3,-3.2 -1.4,-1.4 -2.5,-3.1 -3.3,-5 -0.7,-2 -1.1,-4.1 -1.1,-6.5 z"
           style="fill:#ffffff;fill-opacity:1" />
        <path
           id="XMLID_6_"
           class="st0"
           d="m 234.2,69.4 c 0,-5.8 1.1,-11.1 3.3,-16 2.2,-4.9 5.2,-9 9.1,-12.6 3.9,-3.6 8.5,-6.2 13.7,-8.2 5.3,-2 11,-2.9 17.1,-2.9 3.2,0 6.6,0.4 10.1,1.1 3.5,0.7 7,1.8 10.3,3.3 2.1,0.9 3.8,1.9 5.3,2.9 1.5,1.1 2.2,2.3 2.2,3.7 0,1 -0.3,1.7 -0.8,2.2 -0.6,0.5 -1.2,0.8 -1.9,0.8 -0.6,0 -1.2,-0.1 -1.8,-0.4 -0.6,-0.3 -1.3,-0.7 -2.1,-1.3 -1,-0.9 -2.1,-1.8 -3.3,-2.5 -1.2,-0.7 -2.5,-1.4 -4,-1.9 -2.3,-0.9 -4.6,-1.5 -6.9,-2 -2.2,-0.4 -4.9,-0.7 -7.8,-0.7 -1.3,0 -2.4,0 -3.5,0.1 -1.1,0.1 -2.1,0.2 -3,0.4 v 68.9 c 1.3,0.2 2.5,0.4 3.8,0.5 1.3,0.1 2.4,0.1 3.3,0.1 2.2,0 4.4,-0.2 6.6,-0.5 2.2,-0.4 4.2,-0.9 6.2,-1.6 2,-0.7 3.8,-1.5 5.5,-2.4 1.7,-0.9 3.2,-2 4.5,-3.1 1,-0.9 1.8,-1.5 2.5,-1.8 0.6,-0.3 1.3,-0.5 2.1,-0.5 0.4,0 0.9,0.2 1.4,0.6 0.5,0.4 0.8,1 0.8,1.9 0,0.9 -0.4,1.8 -1.1,2.7 -0.7,0.9 -1.9,2 -3.5,3.2 -3.8,2.5 -7.7,4.3 -11.8,5.4 -4.1,1.1 -8.6,1.6 -13.6,1.6 -6.4,0 -12.3,-1 -17.6,-3 -5.3,-2 -9.8,-4.9 -13.5,-8.5 -3.7,-3.6 -6.6,-8 -8.6,-13.1 -1.9,-4.9 -3,-10.4 -3,-16.4 z"
           style="fill:#ffffff;fill-opacity:1" />
        <path
           id="XMLID_8_"
           class="st0"
           d="m 323.6,5.6 h 31.5 v 55.9 l 30.8,-22.3 c 1.4,-1.1 2.7,-2.1 3.9,-3.2 1.2,-1.1 2.4,-2.2 3.5,-3.5 1.5,-1.8 3,-2.7 4.5,-2.7 0.9,0 1.6,0.3 2.1,0.8 0.5,0.5 0.7,1.2 0.7,1.9 0,0.4 -0.1,0.9 -0.3,1.4 -0.2,0.5 -0.5,1 -1.1,1.6 -0.5,0.6 -1.3,1.3 -2.2,2.1 -1,0.8 -2.2,1.8 -3.8,2.9 l -13.8,10.6 27,58.3 H 373.7 L 355,68.1 v 41.3 H 323.5 V 5.6 Z"
           style="fill:#ffffff;fill-opacity:1" />
      </g>
      <g
         id="XMLID_75_"
         style="fill:#ffffff;fill-opacity:1;stroke:#ffffff;stroke-width:1.00018;stroke-miterlimit:4;stroke-dasharray:none;stroke-opacity:1">
        <g
           id="XMLID_76_"
           style="fill:#ffffff;fill-opacity:1;stroke:#ffffff;stroke-width:1.00018;stroke-miterlimit:4;stroke-dasharray:none;stroke-opacity:1">
          <defs
             id="defs1515">
            <rect
               id="rect1680"
               x="81.199997"
               y="22.799999"
               width="90"
               height="89.400002" />
          </defs>
          <clipPath
             id="clipPath1608">
            <use
               xlink:href="#XMLID_77_"
               style="overflow:visible"
               id="use1606"
               x="0"
               y="0"
               width="100%"
               height="100%" />
          </clipPath>
          <g
             id="XMLID_78_"
             class="st1"
             clip-path="url(#XMLID_19_)"
             style="fill:#ffffff;fill-opacity:1;stroke:#ffffff;stroke-width:1.00018;stroke-miterlimit:4;stroke-dasharray:none;stroke-opacity:1">
            <defs
               id="defs1521">
              <rect
                 id="rect1685"
                 x="81.199997"
                 y="22.799999"
                 width="90"
                 height="89.400002" />
            </defs>
            <clipPath
               id="clipPath1614">
              <use
                 xlink:href="#XMLID_79_"
                 style="overflow:visible"
                 id="use1612"
                 x="0"
                 y="0"
                 width="100%"
                 height="100%" />
            </clipPath>
            <path
               id="XMLID_81_"
               class="st2"
               d="m 128.1,26.4 c -0.4,0 -0.8,0 -1.3,0 -0.5,0 -1.1,0 -1.6,0 v 3 3.4 h 2.8 v -3.4 c 20.6,0.7 37.1,17.6 37.1,38.3 0,21.2 -17.2,38.3 -38.3,38.3 -21.2,0 -38.3,-17.2 -38.3,-38.3 0,-7.9 2.4,-15.2 6.5,-21.3 l -2.5,-1.6 c -4.4,6.6 -6.9,14.4 -6.9,22.9 0,22.8 18.5,41.3 41.3,41.3 9.1,0 17.4,-2.9 24.3,-7.9 10.3,-7.5 17.1,-19.7 17.1,-33.5 -0.2,-22.3 -18,-40.6 -40.2,-41.2"
               clip-path="url(#XMLID_20_)"
               style="fill:#ffffff;fill-opacity:1;stroke:#ffffff;stroke-width:1.00018;stroke-miterlimit:4;stroke-dasharray:none;stroke-opacity:1" />
            <polygon
               id="XMLID_80_"
               class="st2"
               points="125.2,66.5 128.1,66.5 128.1,36 125.2,36 "
               clip-path="url(#XMLID_20_)"
               style="fill:#ffffff;fill-opacity:1;stroke:#ffffff;stroke-width:1.00018;stroke-miterlimit:4;stroke-dasharray:none;stroke-opacity:1" />
          </g>
        </g>
      </g>
      <g
         id="XMLID_2_"
         style="fill:#ffffff;fill-opacity:1" />
      <g
         id="XMLID_13_"
         style="fill:#ffffff;fill-opacity:1" />
      <g
         id="XMLID_14_"
         style="fill:#ffffff;fill-opacity:1" />
      <g
         id="XMLID_15_"
         style="fill:#ffffff;fill-opacity:1" />
      <g
         id="XMLID_16_"
         style="fill:#ffffff;fill-opacity:1" />
      <g
         id="XMLID_17_"
         style="fill:#ffffff;fill-opacity:1" />
    </g>
  </g>
  <style
     type="text/css"
     id="style1506">
	.st0{fill:#4BA2DA;}
	.st1{clip-path:url(#XMLID_19_);}
	.st2{clip-path:url(#XMLID_20_);fill:none;stroke:#4BA2D9;stroke-width:2;stroke-miterlimit:10;}
</style>
</svg>
